<svg id="Layer_2" data-name="Layer 2" xmlns="http://www.w3.org/2000/svg" viewBox="0 0 200 200"><defs><style>.cls-1{fill:#6bbfe1;}.cls-2{fill:#fff;}</style></defs><rect id="Achtergrond" class="cls-1" width="200" height="200"/><g id="Hover-body"><path id="Fire" class="cls-2" d="M84.57,171.89l5.75-2.83,5.83,14.47L102,169.06l5.68,2.85s-1.49-9.55-8.62-11.23C99.06,160.68,87.72,156.87,84.57,171.89Z"/><path id="Vliegend-onderdeel" class="cls-2" d="M83.43,154.53s.13,1.72,2.73,2.69a4.93,4.93,0,0,0,1.74.29h16.36a5.48,5.48,0,0,0,2.26-.47,4.55,4.55,0,0,0,2.61-2.51Z"/></g><g id="Body"><path id="Lichaam" class="cls-2" d="M95.6,99.13h1a25.72,25.72,0,0,1,25.72,25.72V145.6a6,6,0,0,1-6,6H75.89a6,6,0,0,1-6-6V124.87A25.74,25.74,0,0,1,95.6,99.13Z"/><polygon id="Logo" class="cls-1" points="85.34 133.98 89.68 133.98 91.25 124.12 95.27 133.98 97.02 133.98 101.33 123.89 102.64 133.98 107.01 133.98 104.49 116.43 100 116.43 96.18 125.64 92.66 116.43 88.25 116.43 85.34 133.98"/><rect id="Nek" class="cls-2" x="91.79" y="96.06" width="8.84" height="3.94"/><path id="Rechter-arm" class="cls-2" d="M119.57,107.65l3.05,5.3a46.63,46.63,0,0,0,27.44-2.25s1.81,2.67,6.86,3a5.9,5.9,0,0,0,1.39-.07c1.33-.23,4.08-.81,5.41-2a1.88,1.88,0,0,0,.58-1.57c-.12-1.15-.77-3-3.83-1.55,0,0-5.47,2.56-7.87-2,0,0-1.34-4.07,3.21-7.07a2.78,2.78,0,0,0,1.27-2.25c0-.78-.37-1.6-1.74-1.93a2.13,2.13,0,0,0-1.46.22,10.85,10.85,0,0,0-5.79,11.18S137.78,112.53,119.57,107.65Z"/><path id="Linker-arm" class="cls-2" d="M75.3,104.68s-3.8,3.77-5,7.25c0,0-12.81,6.64-18.07,18.89,0,0,5.42,3,3.56,11.84,0,0-.5,2.07-2.38,1.89-2.45-.23-2.09-2.44-1.79-3.43a5.14,5.14,0,0,0,.19-1.56,9.42,9.42,0,0,0-.46-2.79A4.4,4.4,0,0,0,44,135.2a10,10,0,0,0-2.18,3.29A2.9,2.9,0,0,1,40.55,140c-.73.41-1.79.48-2.75-.89a2.18,2.18,0,0,1,.06-2.57h0a.43.43,0,0,1,0-.07c.19-.55,2.82-7.35,10.23-7.17C48.13,129.33,54,112.91,75.3,104.68Z"/></g><g id="Hoofd"><rect id="Hoofd-2" data-name="Hoofd" class="cls-2" x="58.45" y="46.28" width="76" height="46.64" rx="5.66"/><g id="Mond"><rect id="Mond-deel-1" class="cls-1" x="83.13" y="81.28" width="2.98" height="2.98"/><rect id="Mond-deel-2" class="cls-1" x="88.94" y="81.28" width="2.98" height="2.98"/><rect id="Mond-deel-3" class="cls-1" x="94.74" y="81.28" width="2.98" height="2.98"/><rect id="Mond-deel-4" class="cls-1" x="100.55" y="81.28" width="2.98" height="2.98"/><rect id="Mond-deel-5" class="cls-1" x="106.36" y="81.28" width="2.98" height="2.98"/></g><g id="Ogen"><polygon id="Midden-oog" class="cls-1" points="100.61 72.62 103.55 72.62 109.35 54.87 106.63 54.87 100.61 72.62"/><path id="Linker-oog" class="cls-1" d="M103.67,54.87H76.07a8.87,8.87,0,0,0-8.87,8.87h0a8.88,8.88,0,0,0,8.87,8.88H97.65Z"/><path id="Rechter-oog" class="cls-1" d="M116.82,54.87h-.11l-5.8,17.75h5.91a8.88,8.88,0,0,0,8.87-8.88h0A8.87,8.87,0,0,0,116.82,54.87Z"/></g><g id="Oren"><path id="Linker-oor" class="cls-2" d="M55.37,63.74a5.59,5.59,0,0,0-4.7,2.32,5.93,5.93,0,0,0-.32,6.54,6.3,6.3,0,0,0,5,2.88Z"/><path id="Rechter-oor" class="cls-2" d="M137.15,63.73a5.56,5.56,0,0,1,4.7,2.32,5.91,5.91,0,0,1,.32,6.54,6.31,6.31,0,0,1-5,2.88Z"/></g><g id="Sensors"><path id="Linker-Antene" class="cls-2" d="M81.81,31.64a5.8,5.8,0,1,0-7.27,5.65v6h2.95v-6A5.84,5.84,0,0,0,81.81,31.64Z"/><path id="Rechter-Antene" class="cls-2" d="M122.79,31.64a5.88,5.88,0,1,0-7.37,5.65v6h3v-6A5.85,5.85,0,0,0,122.79,31.64Z"/><g id="Stroom"><path class="cls-2" d="M86.23,33.26H90a1.87,1.87,0,0,0,1.61-.93l3-5.17H91.39l6.5,11.48a1.89,1.89,0,0,0,3.24,0l3.15-6.14-1.62.92,3.12,0c2.41,0,2.41-3.73,0-3.75l-3.12,0a1.86,1.86,0,0,0-1.61.93l-3.16,6.15h3.24l-6.5-11.48a1.9,1.9,0,0,0-3.24,0l-3,5.17L90,29.51H86.23a1.88,1.88,0,0,0,0,3.75Z"/></g></g></g></svg>